<mxfile host="app.diagrams.net" modified="2024-07-15T23:31:12.484Z" agent="Mozilla/5.0 (Windows NT 10.0; Win64; x64) AppleWebKit/537.36 (KHTML, like Gecko) Chrome/126.0.0.0 Safari/537.36" etag="y9dGKmHczaPZcJcq4XBH" version="24.6.5" type="google">
  <diagram name="Page-1" id="mc7ouhuyK3qoyrqMmPpB">
    <mxGraphModel grid="1" page="1" gridSize="10" guides="1" tooltips="1" connect="1" arrows="1" fold="1" pageScale="1" pageWidth="1200" pageHeight="1600" math="0" shadow="0">
      <root>
        <mxCell id="0" />
        <mxCell id="1" parent="0" />
        <mxCell id="odnZHVul3WYB3OMLnSqF-1" value="&lt;font style=&quot;font-size: 24px;&quot;&gt;Plant&lt;/font&gt;" style="text;html=1;align=center;verticalAlign=middle;whiteSpace=wrap;rounded=0;" vertex="1" parent="1">
          <mxGeometry x="675" y="150" width="60" height="30" as="geometry" />
        </mxCell>
        <mxCell id="odnZHVul3WYB3OMLnSqF-2" value="&lt;font style=&quot;font-size: 24px;&quot;&gt;Angiosperm&lt;/font&gt;" style="text;html=1;align=center;verticalAlign=middle;whiteSpace=wrap;rounded=0;" vertex="1" parent="1">
          <mxGeometry x="255" y="410" width="60" height="30" as="geometry" />
        </mxCell>
        <mxCell id="odnZHVul3WYB3OMLnSqF-3" value="&lt;font style=&quot;font-size: 24px;&quot;&gt;Gymnosperm&lt;/font&gt;" style="text;html=1;align=center;verticalAlign=middle;whiteSpace=wrap;rounded=0;" vertex="1" parent="1">
          <mxGeometry x="520" y="410" width="60" height="30" as="geometry" />
        </mxCell>
        <mxCell id="V-0p3fVZk9utnxFeKywN-9" value="&lt;span style=&quot;font-size: 24px;&quot;&gt;Pear Trees&lt;/span&gt;" style="text;html=1;align=center;verticalAlign=middle;whiteSpace=wrap;rounded=0;" vertex="1" parent="1">
          <mxGeometry x="100" y="540" width="155" height="30" as="geometry" />
        </mxCell>
        <mxCell id="V-0p3fVZk9utnxFeKywN-10" value="&lt;span style=&quot;font-size: 24px;&quot;&gt;Apple Trees&lt;/span&gt;" style="text;html=1;align=center;verticalAlign=middle;whiteSpace=wrap;rounded=0;" vertex="1" parent="1">
          <mxGeometry x="305" y="540" width="155" height="30" as="geometry" />
        </mxCell>
        <mxCell id="odnZHVul3WYB3OMLnSqF-23" value="" style="endArrow=none;html=1;rounded=0;" edge="1" parent="1">
          <mxGeometry width="50" height="50" relative="1" as="geometry">
            <mxPoint x="485" y="270" as="sourcePoint" />
            <mxPoint x="665" y="180" as="targetPoint" />
          </mxGeometry>
        </mxCell>
        <mxCell id="V-0p3fVZk9utnxFeKywN-11" value="" style="endArrow=none;html=1;rounded=0;exitX=0.5;exitY=0;exitDx=0;exitDy=0;entryX=0.25;entryY=1;entryDx=0;entryDy=0;" edge="1" parent="1" source="V-0p3fVZk9utnxFeKywN-9" target="odnZHVul3WYB3OMLnSqF-2">
          <mxGeometry width="50" height="50" relative="1" as="geometry">
            <mxPoint x="475" y="440" as="sourcePoint" />
            <mxPoint x="525" y="390" as="targetPoint" />
          </mxGeometry>
        </mxCell>
        <mxCell id="V-0p3fVZk9utnxFeKywN-13" value="" style="endArrow=none;html=1;rounded=0;entryX=1;entryY=1;entryDx=0;entryDy=0;exitX=0.5;exitY=0;exitDx=0;exitDy=0;" edge="1" parent="1" source="V-0p3fVZk9utnxFeKywN-10" target="odnZHVul3WYB3OMLnSqF-2">
          <mxGeometry width="50" height="50" relative="1" as="geometry">
            <mxPoint x="475" y="550" as="sourcePoint" />
            <mxPoint x="525" y="500" as="targetPoint" />
          </mxGeometry>
        </mxCell>
        <mxCell id="odnZHVul3WYB3OMLnSqF-24" value="" style="endArrow=none;html=1;rounded=0;" edge="1" parent="1">
          <mxGeometry width="50" height="50" relative="1" as="geometry">
            <mxPoint x="745" y="180" as="sourcePoint" />
            <mxPoint x="935" y="250" as="targetPoint" />
          </mxGeometry>
        </mxCell>
        <mxCell id="V-0p3fVZk9utnxFeKywN-14" value="" style="endArrow=none;html=1;rounded=0;entryX=0.75;entryY=1;entryDx=0;entryDy=0;exitX=0.5;exitY=0;exitDx=0;exitDy=0;" edge="1" parent="1" source="V-0p3fVZk9utnxFeKywN-15" target="odnZHVul3WYB3OMLnSqF-3">
          <mxGeometry width="50" height="50" relative="1" as="geometry">
            <mxPoint x="500" y="520" as="sourcePoint" />
            <mxPoint x="510" y="500" as="targetPoint" />
          </mxGeometry>
        </mxCell>
        <mxCell id="V-0p3fVZk9utnxFeKywN-15" value="&lt;span style=&quot;font-size: 24px;&quot;&gt;Cycas&lt;/span&gt;" style="text;html=1;align=center;verticalAlign=middle;whiteSpace=wrap;rounded=0;" vertex="1" parent="1">
          <mxGeometry x="490" y="540" width="155" height="30" as="geometry" />
        </mxCell>
        <mxCell id="hJu-uhawQqHCtF6-Uh9h-1" value="&lt;font style=&quot;font-size: 24px;&quot;&gt;Spore-bearing&lt;/font&gt;" style="text;html=1;align=center;verticalAlign=middle;whiteSpace=wrap;rounded=0;" vertex="1" parent="1">
          <mxGeometry x="860" y="280" width="170" height="30" as="geometry" />
        </mxCell>
        <mxCell id="hJu-uhawQqHCtF6-Uh9h-3" value="&lt;font style=&quot;font-size: 24px;&quot;&gt;Seed&lt;/font&gt;&amp;nbsp;&lt;span style=&quot;font-size: 24px;&quot;&gt;-bearing&lt;/span&gt;" style="text;html=1;align=center;verticalAlign=middle;whiteSpace=wrap;rounded=0;" vertex="1" parent="1">
          <mxGeometry x="390" y="280" width="170" height="30" as="geometry" />
        </mxCell>
        <mxCell id="hJu-uhawQqHCtF6-Uh9h-6" value="" style="endArrow=none;html=1;rounded=0;entryX=0.347;entryY=1.098;entryDx=0;entryDy=0;entryPerimeter=0;exitX=0.5;exitY=0;exitDx=0;exitDy=0;" edge="1" parent="1" source="odnZHVul3WYB3OMLnSqF-2" target="hJu-uhawQqHCtF6-Uh9h-3">
          <mxGeometry width="50" height="50" relative="1" as="geometry">
            <mxPoint x="630" y="520" as="sourcePoint" />
            <mxPoint x="680" y="470" as="targetPoint" />
          </mxGeometry>
        </mxCell>
        <mxCell id="hJu-uhawQqHCtF6-Uh9h-7" value="" style="endArrow=none;html=1;rounded=0;entryX=0.604;entryY=1.179;entryDx=0;entryDy=0;entryPerimeter=0;" edge="1" parent="1" target="hJu-uhawQqHCtF6-Uh9h-3">
          <mxGeometry width="50" height="50" relative="1" as="geometry">
            <mxPoint x="540" y="400" as="sourcePoint" />
            <mxPoint x="680" y="470" as="targetPoint" />
          </mxGeometry>
        </mxCell>
        <mxCell id="hJu-uhawQqHCtF6-Uh9h-8" value="&lt;span style=&quot;font-size: 24px;&quot;&gt;Fern&lt;/span&gt;" style="text;html=1;align=center;verticalAlign=middle;whiteSpace=wrap;rounded=0;" vertex="1" parent="1">
          <mxGeometry x="1045" y="410" width="155" height="30" as="geometry" />
        </mxCell>
        <mxCell id="hJu-uhawQqHCtF6-Uh9h-9" value="" style="endArrow=none;html=1;rounded=0;exitX=0.5;exitY=0;exitDx=0;exitDy=0;" edge="1" parent="1" source="hJu-uhawQqHCtF6-Uh9h-8">
          <mxGeometry width="50" height="50" relative="1" as="geometry">
            <mxPoint x="630" y="520" as="sourcePoint" />
            <mxPoint x="1010" y="320" as="targetPoint" />
          </mxGeometry>
        </mxCell>
        <mxCell id="9jke6K827Fl3YFmtGC6e-7" value="&lt;span style=&quot;font-size: 24px;&quot;&gt;Moss&lt;/span&gt;" style="text;html=1;align=center;verticalAlign=middle;whiteSpace=wrap;rounded=0;" vertex="1" parent="1">
          <mxGeometry x="890" y="410" width="155" height="30" as="geometry" />
        </mxCell>
        <mxCell id="9jke6K827Fl3YFmtGC6e-8" value="&lt;span style=&quot;font-size: 24px;&quot;&gt;Liverworts&lt;/span&gt;" style="text;html=1;align=center;verticalAlign=middle;whiteSpace=wrap;rounded=0;" vertex="1" parent="1">
          <mxGeometry x="720" y="410" width="155" height="30" as="geometry" />
        </mxCell>
        <mxCell id="9jke6K827Fl3YFmtGC6e-9" value="" style="endArrow=none;html=1;rounded=0;fontSize=12;startSize=8;endSize=8;curved=1;" edge="1" parent="1">
          <mxGeometry width="50" height="50" relative="1" as="geometry">
            <mxPoint x="970" y="400" as="sourcePoint" />
            <mxPoint x="960" y="320" as="targetPoint" />
          </mxGeometry>
        </mxCell>
        <mxCell id="hJu-uhawQqHCtF6-Uh9h-11" value="" style="endArrow=none;html=1;rounded=0;entryX=0.25;entryY=1;entryDx=0;entryDy=0;exitX=0.5;exitY=0;exitDx=0;exitDy=0;" edge="1" parent="1" source="9jke6K827Fl3YFmtGC6e-8" target="hJu-uhawQqHCtF6-Uh9h-1">
          <mxGeometry width="50" height="50" relative="1" as="geometry">
            <mxPoint x="630" y="520" as="sourcePoint" />
            <mxPoint x="680" y="470" as="targetPoint" />
          </mxGeometry>
        </mxCell>
      </root>
    </mxGraphModel>
  </diagram>
</mxfile>
